<svg width="22" height="21" viewBox="0 0 22 21" fill="none" xmlns="http://www.w3.org/2000/svg">
<path d="M15.5463 11.7649C16.2963 11.7649 16.9563 11.3549 17.2963 10.7349L20.8763 4.24489C21.2463 3.58489 20.7663 2.76489 20.0063 2.76489H5.20634L4.26634 0.764893H0.996338V2.76489H2.99634L6.59634 10.3549L5.24634 12.7949C4.51634 14.1349 5.47634 15.7649 6.99634 15.7649H18.9963V13.7649H6.99634L8.09634 11.7649H15.5463ZM6.15634 4.76489H18.3063L15.5463 9.76489H8.52634L6.15634 4.76489ZM6.99634 16.7649C5.89634 16.7649 5.00634 17.6649 5.00634 18.7649C5.00634 19.8649 5.89634 20.7649 6.99634 20.7649C8.09634 20.7649 8.99634 19.8649 8.99634 18.7649C8.99634 17.6649 8.09634 16.7649 6.99634 16.7649ZM16.9963 16.7649C15.8963 16.7649 15.0063 17.6649 15.0063 18.7649C15.0063 19.8649 15.8963 20.7649 16.9963 20.7649C18.0963 20.7649 18.9963 19.8649 18.9963 18.7649C18.9963 17.6649 18.0963 16.7649 16.9963 16.7649Z" fill="white"/>
</svg>
